<?xml version="1.0"?><svg id="Layer_2" xmlns="http://www.w3.org/2000/svg" viewBox="0 0 405.66 90.43"><defs></defs><g id="Layer_1-2"><g><g><path class="cls-1" d="M171.13,0V88.66h-13.3l-38-54.21v54.21h-17.48V0h13.3l38,54.08V0h17.48Z"></path><path class="cls-1" d="M316.36,0V88.66h-17.48V0h17.48Z"></path><path class="cls-1" d="M40.64,73.14c4.74,0,8.47-3.73,8.47-8.47V0h17.46V65.02c0,14.06-11.35,25.41-25.41,25.41h-15.75C11.35,90.43,0,79.08,0,65.02V0H17.33V64.67c0,4.74,3.73,8.47,8.47,8.47h14.84Z"></path></g><polygon class="cls-1" points="268.52 0 202.46 0 202.46 16.72 226.27 16.72 226.27 88.66 243.75 88.66 243.75 16.72 264.2 16.72 268.52 0"></polygon><polygon class="cls-1" points="405.66 71.94 369.38 71.94 369.38 0 351.9 0 351.9 88.66 401.33 88.66 405.66 71.94"></polygon></g></g></svg>