<?xml version="1.0"?>

<svg version="1.1" id="Layer_2_00000125566238239751559200000001051233294933107640_" xmlns="http://www.w3.org/2000/svg" xmlns:xlink="http://www.w3.org/1999/xlink" x="0px" y="0px" viewBox="0 0 405.7 90.4" style="enable-background:new 0 0 405.7 90.4;" xml:space="preserve">
<g id="Layer_1-2">
&#x9;<g>
&#x9;&#x9;<g>
&#x9;&#x9;&#x9;<path d="M171.1,0v88.7h-13.3l-38-54.2v54.2h-17.5V0h13.3l38,54.1V0H171.1z"></path>
&#x9;&#x9;&#x9;<path d="M316.4,0v88.7h-17.5V0H316.4z"></path>
&#x9;&#x9;&#x9;<path d="M40.6,73.1c4.7,0,8.5-3.7,8.5-8.5V0h17.5v65c0,14.1-11.3,25.4-25.4,25.4H25.4C11.4,90.4,0,79.1,0,65V0h17.3v64.7&#xA;&#x9;&#x9;&#x9;&#x9;c0,4.7,3.7,8.5,8.5,8.5H40.6z"></path>
&#x9;&#x9;</g>
&#x9;&#x9;<polygon points="268.5,0 202.5,0 202.5,16.7 226.3,16.7 226.3,88.7 243.8,88.7 243.8,16.7 264.2,16.7 &#x9;&#x9;"></polygon>
&#x9;&#x9;<polygon points="405.7,71.9 369.4,71.9 369.4,0 351.9,0 351.9,88.7 401.3,88.7 &#x9;&#x9;"></polygon>
&#x9;</g>
</g>
</svg>